<mxfile host="app.diagrams.net" modified="2022-01-26T07:58:03.393Z" agent="5.0 (Macintosh; Intel Mac OS X 10_15_7) AppleWebKit/537.36 (KHTML, like Gecko) Chrome/96.0.4664.110 Safari/537.36" etag="k_R6f7Z7jZvBg9Cd1PpE" version="16.2.6" type="github">
  <diagram id="veREqhetMMfN-ta4D9Qw" name="第 1 页">
    <mxGraphModel dx="946" dy="531" grid="1" gridSize="10" guides="1" tooltips="1" connect="1" arrows="1" fold="1" page="1" pageScale="1" pageWidth="827" pageHeight="1169" math="0" shadow="0">
      <root>
        <mxCell id="0" />
        <mxCell id="1" parent="0" />
        <mxCell id="a44fRRhjj3td94IFOW-7-3" value="" style="image;html=1;image=img/lib/clip_art/computers/iPad_128x128.png" vertex="1" parent="1">
          <mxGeometry x="500" y="750" width="70" height="70" as="geometry" />
        </mxCell>
        <mxCell id="a44fRRhjj3td94IFOW-7-4" value="业务交互服务" style="sketch=0;outlineConnect=0;fontColor=#232F3E;gradientColor=none;fillColor=#232F3D;strokeColor=none;dashed=0;verticalLabelPosition=bottom;verticalAlign=top;align=center;html=1;fontSize=12;fontStyle=0;aspect=fixed;pointerEvents=1;shape=mxgraph.aws4.traditional_server;" vertex="1" parent="1">
          <mxGeometry x="640" y="30" width="45" height="78" as="geometry" />
        </mxCell>
        <mxCell id="a44fRRhjj3td94IFOW-7-11" value="" style="shape=image;html=1;verticalAlign=top;verticalLabelPosition=bottom;labelBackgroundColor=#ffffff;imageAspect=0;aspect=fixed;image=https://cdn1.iconfinder.com/data/icons/vehicle-37/24/Taxi-128.png" vertex="1" parent="1">
          <mxGeometry x="250" y="710" width="110" height="110" as="geometry" />
        </mxCell>
        <mxCell id="a44fRRhjj3td94IFOW-7-18" style="edgeStyle=orthogonalEdgeStyle;rounded=0;orthogonalLoop=1;jettySize=auto;html=1;exitX=0.5;exitY=1;exitDx=0;exitDy=0;startArrow=classic;startFill=1;" edge="1" parent="1" source="a44fRRhjj3td94IFOW-7-17" target="a44fRRhjj3td94IFOW-7-11">
          <mxGeometry relative="1" as="geometry" />
        </mxCell>
        <mxCell id="a44fRRhjj3td94IFOW-7-20" value="长链接" style="edgeLabel;html=1;align=center;verticalAlign=middle;resizable=0;points=[];" vertex="1" connectable="0" parent="a44fRRhjj3td94IFOW-7-18">
          <mxGeometry x="-0.0526" y="2" relative="1" as="geometry">
            <mxPoint as="offset" />
          </mxGeometry>
        </mxCell>
        <mxCell id="a44fRRhjj3td94IFOW-7-17" value="机器码转换器" style="rounded=0;whiteSpace=wrap;html=1;" vertex="1" parent="1">
          <mxGeometry x="20" y="590" width="570" height="45" as="geometry" />
        </mxCell>
        <mxCell id="a44fRRhjj3td94IFOW-7-30" value="" style="rounded=0;whiteSpace=wrap;html=1;" vertex="1" parent="1">
          <mxGeometry x="20" y="500" width="190" height="80" as="geometry" />
        </mxCell>
        <mxCell id="a44fRRhjj3td94IFOW-7-32" value="运动" style="rounded=1;whiteSpace=wrap;html=1;" vertex="1" parent="1">
          <mxGeometry x="47.5" y="528" width="60" height="40" as="geometry" />
        </mxCell>
        <mxCell id="a44fRRhjj3td94IFOW-7-33" value="停止" style="rounded=1;whiteSpace=wrap;html=1;" vertex="1" parent="1">
          <mxGeometry x="122.5" y="528" width="60" height="40" as="geometry" />
        </mxCell>
        <mxCell id="a44fRRhjj3td94IFOW-7-34" value="动力指令" style="text;html=1;align=center;verticalAlign=middle;resizable=0;points=[];autosize=1;strokeColor=none;fillColor=none;" vertex="1" parent="1">
          <mxGeometry x="85" y="502" width="60" height="20" as="geometry" />
        </mxCell>
        <mxCell id="a44fRRhjj3td94IFOW-7-35" value="" style="rounded=0;whiteSpace=wrap;html=1;" vertex="1" parent="1">
          <mxGeometry x="230" y="500" width="360" height="80" as="geometry" />
        </mxCell>
        <mxCell id="a44fRRhjj3td94IFOW-7-36" value="车机指令" style="text;html=1;align=center;verticalAlign=middle;resizable=0;points=[];autosize=1;strokeColor=none;fillColor=none;" vertex="1" parent="1">
          <mxGeometry x="380" y="502" width="60" height="20" as="geometry" />
        </mxCell>
        <mxCell id="a44fRRhjj3td94IFOW-7-37" value="开门\锁门" style="rounded=1;whiteSpace=wrap;html=1;" vertex="1" parent="1">
          <mxGeometry x="240" y="528" width="60" height="40" as="geometry" />
        </mxCell>
        <mxCell id="a44fRRhjj3td94IFOW-7-38" value="开窗\关窗" style="rounded=1;whiteSpace=wrap;html=1;" vertex="1" parent="1">
          <mxGeometry x="310" y="528" width="60" height="40" as="geometry" />
        </mxCell>
        <mxCell id="a44fRRhjj3td94IFOW-7-39" value="声音" style="rounded=1;whiteSpace=wrap;html=1;" vertex="1" parent="1">
          <mxGeometry x="380" y="528" width="60" height="40" as="geometry" />
        </mxCell>
        <mxCell id="a44fRRhjj3td94IFOW-7-40" value="空调" style="rounded=1;whiteSpace=wrap;html=1;" vertex="1" parent="1">
          <mxGeometry x="450" y="528" width="60" height="40" as="geometry" />
        </mxCell>
        <mxCell id="a44fRRhjj3td94IFOW-7-42" value="车灯" style="rounded=1;whiteSpace=wrap;html=1;" vertex="1" parent="1">
          <mxGeometry x="520" y="528" width="60" height="40" as="geometry" />
        </mxCell>
        <mxCell id="a44fRRhjj3td94IFOW-7-45" value="指令组合层&lt;br&gt;&lt;br&gt;例如：开始发车行为包含命令&lt;br&gt;关闭远光灯、开启近光灯、锁车门、车辆运动" style="whiteSpace=wrap;html=1;" vertex="1" parent="1">
          <mxGeometry x="20" y="420" width="570" height="70" as="geometry" />
        </mxCell>
        <mxCell id="a44fRRhjj3td94IFOW-7-46" value="静止" style="ellipse;whiteSpace=wrap;html=1;" vertex="1" parent="1">
          <mxGeometry x="47.5" y="180" width="87" height="50" as="geometry" />
        </mxCell>
        <mxCell id="a44fRRhjj3td94IFOW-7-47" value="运动中" style="ellipse;whiteSpace=wrap;html=1;" vertex="1" parent="1">
          <mxGeometry x="400" y="180" width="87" height="50" as="geometry" />
        </mxCell>
        <mxCell id="a44fRRhjj3td94IFOW-7-50" value="" style="rounded=0;whiteSpace=wrap;html=1;" vertex="1" parent="1">
          <mxGeometry x="20" y="330" width="570" height="70" as="geometry" />
        </mxCell>
        <mxCell id="a44fRRhjj3td94IFOW-7-51" value="指令API层" style="text;html=1;align=center;verticalAlign=middle;resizable=0;points=[];autosize=1;strokeColor=none;fillColor=none;" vertex="1" parent="1">
          <mxGeometry x="270" y="332" width="70" height="20" as="geometry" />
        </mxCell>
      </root>
    </mxGraphModel>
  </diagram>
</mxfile>
